<svg xmlns="http://www.w3.org/2000/svg" viewBox="0 0 512 512" id="bull-graph"><g data-name="Bull Graph"><rect width="6" height="395.13" x="62.32" y="80.87" fill="#5e6175"></rect><rect width="439.35" height="6" x="36.33" y="442.34" fill="#5e6175"></rect><rect width="6" height="11.75" x="115.93" y="445.34" fill="#5e6175"></rect><rect width="6" height="11.75" x="168.14" y="445.34" fill="#5e6175"></rect><rect width="6" height="11.75" x="220.34" y="445.34" fill="#5e6175"></rect><rect width="6" height="11.75" x="272.54" y="445.34" fill="#5e6175"></rect><rect width="6" height="11.75" x="324.74" y="445.34" fill="#5e6175"></rect><rect width="6" height="11.75" x="376.94" y="445.34" fill="#5e6175"></rect><rect width="18.76" height="60.16" x="420.92" y="177.37" fill="#e1830e"></rect><rect width="6" height="26.52" x="427.3" y="150.85" fill="#5e6175"></rect><rect width="6" height="26.52" x="427.3" y="237.54" fill="#5e6175"></rect><rect width="18.76" height="60.16" x="368.72" y="212.12" fill="#dee1ec"></rect><rect width="6" height="26.52" x="375.1" y="185.59" fill="#5e6175"></rect><rect width="6" height="26.52" x="375.1" y="272.28" fill="#5e6175"></rect><rect width="18.76" height="60.16" x="316.52" y="212.12" fill="#e1830e"></rect><rect width="6" height="26.52" x="322.9" y="185.59" fill="#5e6175"></rect><rect width="6" height="26.52" x="322.9" y="272.28" fill="#5e6175"></rect><rect width="18.76" height="60.16" x="264.32" y="306.63" fill="#a9afc4"></rect><path fill="#5e6175" d="M442.68 240.54H417.92V174.37h24.76zm-18.76-6h12.76V180.37H423.92zM286.08 369.79H261.32V303.63h24.76zm-18.76-6h12.76V309.63H267.32z"></path><rect width="6" height="26.52" x="270.7" y="280.1" fill="#5e6175"></rect><rect width="6" height="26.52" x="270.7" y="366.79" fill="#5e6175"></rect><rect width="18.76" height="60.16" x="212.11" y="290.87" fill="#e1830e"></rect><rect width="6" height="26.52" x="218.5" y="264.35" fill="#5e6175"></rect><rect width="6" height="26.52" x="218.5" y="351.04" fill="#5e6175"></rect><rect width="18.76" height="60.16" x="159.91" y="306.21" fill="#dee1ec"></rect><path fill="#5e6175" d="M390.48 275.28H365.72V209.12h24.76zm-18.76-6h12.76V215.12H371.72zM338.28 275.28H313.52V209.12h24.76zm-18.76-6h12.76V215.12H319.52zM233.88 354H209.11V287.87h24.77zm-18.77-6h12.77V293.87H215.11zM181.67 369.38H156.91V303.21h24.76zm-18.76-6h12.76V309.21H162.91z"></path><rect width="6" height="26.52" x="166.29" y="279.69" fill="#5e6175"></rect><rect width="6" height="26.52" x="166.29" y="366.38" fill="#5e6175"></rect><path fill="#a9afc4" d="M433.3 428.47h-6v-6h6zm0-16h-6v-6h6zm0-16h-6v-6h6zm0-16h-6v-6h6zm0-16h-6v-6h6zm0-16h-6v-6h6zm0-16h-6v-6h6zm0-16h-6v-6h6zm0-16h-6v-6h6zm0-16h-6v-6h6zM381.1 429.3h-6v-6h6zm0-16h-6v-6h6zm0-16h-6v-6h6zm0-16h-6v-6h6zm0-16h-6v-6h6zm0-16h-6v-6h6zm0-16h-6v-6h6zm0-16h-6v-6h6zM328.9 429.3h-6v-6h6zm0-16h-6v-6h6zm0-16h-6v-6h6zm0-16h-6v-6h6zm0-16h-6v-6h6zm0-16h-6v-6h6zm0-16h-6v-6h6zm0-16h-6v-6h6zM276.7 430.84h-6v-6h6zm0-16h-6v-6h6zM224.5 430.53h-6v-6h6zm0-16h-6v-6h6zm0-16h-6v-6h6zM172.29 429.87h-6v-6h6zm0-16h-6v-6h6z"></path><rect width="6" height="11.75" x="427.3" y="445.34" fill="#5e6175"></rect><rect width="18.76" height="60.16" x="109.55" y="323.59" fill="#a9afc4"></rect><path fill="#5e6175" d="M131.31,386.76H106.55V320.59h24.76Zm-18.76-6h12.76V326.59H112.55Z"></path><rect width="6" height="26.52" x="115.93" y="297.07" fill="#5e6175"></rect><rect width="6" height="26.52" x="115.93" y="383.76" fill="#5e6175"></rect><rect width="6" height="6" x="115.93" y="425.26" fill="#a9afc4"></rect><path fill="#f5f5f5" d="M213.09,209.67l34.11,10.57-10.56-34.12a77.78,77.78,0,1,0-23.55,23.55Z"></path><path fill="#5e6175" d="M114,201.3a80.78,80.78,0,1,1,125.89-14.75l11.84,38.24L213.52,213A80.85,80.85,0,0,1,114,201.3ZM171.14,69.4a74.78,74.78,0,1,0,40.33,137.75l1.17-.76,30,9.3-9.29-30,.75-1.18a74.77,74.77,0,0,0-63-115.1Z"></path><polygon fill="#e1830e" points="457 51.3 457 101.94 441.08 86.03 399.98 127.13 326.08 127.13 299.95 153.28 280.45 133.78 313.92 100.31 389.67 100.31 422.51 67.46 406.34 51.3 457 51.3"></polygon><path fill="#e1830e" d="M182.39,170.28c4.76,2.36,6.54,8.82,2.45,13l-1.51,1.52H159.94l-1.46-1.46c-4-4-2.59-10.5,2.5-13.07A24.24,24.24,0,0,1,182.39,170.28Z"></path><path fill="#e1830e" d="M226.27,112.78l-6.18-6.17V111a11.07,11.07,0,0,1-3.23,7.83l-6.45,6.44a11.07,11.07,0,0,1-7.82,3.25h-5.68l-3.17-3.17a18.32,18.32,0,0,0-13-5.37H162.5a18.24,18.24,0,0,0-13,5.37l-3.17,3.17h-4.92a11.07,11.07,0,0,1-7.82-3.25l-6.45-6.44a11.07,11.07,0,0,1-3.23-7.83v-4.4l-6.18,6.17a11.08,11.08,0,0,0-1.59,13.63l8.25,13.37a11.07,11.07,0,0,0,9.41,5.24h12.53c0,8.56-.35,10.89,1.42,14.93,1.9,4.28,4,6.4,6.36,7.82A38.77,38.77,0,0,0,158,166.1a30.51,30.51,0,0,1,27.17,0,38.71,38.71,0,0,0,3.95,1.7c2.46-1.49,4.55-3.69,6.35-7.82,1.7-3.88,1.42-5.78,1.42-14.93H210.2a11.07,11.07,0,0,0,9.41-5.24l8.25-13.37A11.06,11.06,0,0,0,226.27,112.78Z"></path><path fill="#f5f5f5" d="M160.31 148.81a6.46 6.46 0 01-6.45-6.45v-1.22l2.12-1.47 10.36 5A6.46 6.46 0 01160.31 148.81zM176.93 144.64l10.36-5 2.13 1.47v1.22a6.45 6.45 0 01-12.49 2.28z"></path><path fill="#e1830e" d="M141.55 149.6a21.66 21.66 0 00-19.32 11.85h13.14a6.18 6.18 0 006.18-6.18zM201.61 149.6a21.66 21.66 0 0119.32 11.85H207.79a6.18 6.18 0 01-6.18-6.18zM160.1 189.34a7.24 7.24 0 007.24 7.24h8.59a7.24 7.24 0 007.24-7.24z"></path><path fill="#f5f5f5" d="M167.49 173.54a.73.73 0 00-1.17-.58l-3.69 2.74a2.24 2.24 0 001.34 4h1.29a2.23 2.23 0 002.23-2.23zM175.78 173.54A.73.73 0 01177 173l3.69 2.74a2.24 2.24 0 01-1.33 4H178a2.23 2.23 0 01-2.23-2.23z"></path><rect width="20.08" height="6" x="231.39" y="56.5" fill="#5e6175" transform="rotate(-45 241.425 59.498)"></rect><rect width="6" height="20.08" x="214.77" y="36" fill="#5e6175"></rect><rect width="20.08" height="6" x="245.39" y="78.93" fill="#5e6175"></rect><path fill="#e1830e" d="M94.75,253a15.86,15.86,0,0,1,15.86,15.86A15.85,15.85,0,0,1,126.47,253a15.86,15.86,0,0,1-15.86-15.86A15.86,15.86,0,0,1,94.75,253Z"></path></g></svg>